<svg width="728" height="170" viewBox="0 0 728 170" fill="none" xmlns="http://www.w3.org/2000/svg">
<path fill-rule="evenodd" clip-rule="evenodd" d="M393.697 84.6036L363.507 1.80406L344.19 1.62077L344.157 141.677L364.123 141.721L364.191 57.4465L394.87 141.688L413.79 141.664L414.94 1.50342L393.919 1.55326L393.697 84.6036Z" fill="#FEFEFE"/>
<path fill-rule="evenodd" clip-rule="evenodd" d="M125.845 104.66C125.844 114.877 123.417 122.111 112.512 122.153C103.137 122.19 97.753 115.098 99.1487 105.3C99.5371 102.575 122.736 73.8913 125.787 71.8061L125.845 104.66ZM99.1326 73.5626C98.9446 60.9296 98.6248 46.5961 99.1305 34.068C99.7406 18.9691 115.745 18.4929 122.173 24.4127C125.546 27.5188 127.149 35.2648 125.628 40.8336C125.076 42.8545 122.768 45.191 121.259 46.9289C117.012 51.8201 101.039 72.5693 99.132 73.5626H99.1326ZM113.353 141.49C125.052 142.199 136.313 133.695 140.517 127.197C147.438 116.499 146.277 105.795 145.988 90.8138C146.598 77.6849 146.04 63.1192 146.04 49.82C146.04 36.4663 147.085 23.6879 140.123 13.986C127.12 -4.13487 97.2883 -4.64581 84.5851 15.0436C77.7084 25.702 79.2157 36.5619 79.2157 50.506C79.2157 64.4443 79.2157 78.3827 79.2157 92.3211C79.2157 105.754 78.2951 118.231 85.1703 127.896C90.21 134.98 100.2 142.356 113.353 141.491V141.49Z" fill="#FEFEFE"/>
<path fill-rule="evenodd" clip-rule="evenodd" d="M291.869 22.0065C302.892 19.1933 308.718 26.7243 308.806 36.7876L308.792 101.232C308.795 111.794 308.729 120.638 298.442 122.653C287.949 124.709 282.165 117.967 282.036 108.119L282.044 43.6509C282.044 35.598 281.661 24.6115 291.869 22.007V22.0065ZM279.292 4.13127C272.555 7.90819 268.09 12.2236 264.807 19.7691C259.601 31.7391 262.117 83.3943 262.102 99.176C262.088 114.065 263.03 123.395 271.254 131.684C277.705 138.187 290.88 143.609 303.825 140.353C314.969 137.55 322.594 130.573 326.404 121.146C331.007 109.757 328.859 55.9376 328.866 39.5375C328.872 24.0118 326.797 16.6329 318.21 8.62526C308.254 -0.660765 291.2 -2.54404 279.292 4.13127Z" fill="#FEFEFE"/>
<path fill-rule="evenodd" clip-rule="evenodd" d="M22.6054 67.7258L22.8656 20.738C44.605 20.7879 47.7671 19.6902 47.7183 42.965C47.6711 65.7029 44.1475 67.5342 22.6054 67.7258ZM1.79443 141.411L21.8333 141.745C22.0031 132.752 21.1749 89.5442 22.2441 85.073C39.422 85.1924 51.3525 84.3076 58.8372 73.602C70.1914 57.3624 72.4236 12.76 47.6378 2.97338C39.1099 -0.393866 7.19865 -0.544965 1.82715 0.765588L1.79443 141.411Z" fill="#FEFEFE"/>
<path fill-rule="evenodd" clip-rule="evenodd" d="M229.737 19.7142C229.235 23.7128 210.974 73.5839 209.303 78.0333C205.639 87.7882 202.484 97.6516 198.826 107.308C192.57 123.825 192.272 123.089 192.591 140.288C192.543 141.799 192.584 141.935 192.685 141.936C192.773 141.936 192.981 141.941 193.399 141.96L251.907 141.946L251.88 121.163L213.936 121.153C215.105 113.33 225.293 88.9621 228.428 80.7676L246.799 30.5501C251.744 16.5281 252.716 19.7526 251.718 1.03464L220.582 1.03516L194.585 0.928711L194.61 19.7313L229.737 19.7142H229.737Z" fill="#FEFEFE"/>
<path fill-rule="evenodd" clip-rule="evenodd" d="M162.47 71.6123L162.571 141.815L182.364 141.667L182.38 46.8998L182.419 1.62183L162.373 1.64259L162.47 71.6123Z" fill="#FEFEFE"/>
<path d="M563.938 140.64H510.273V2.04639H530.792V120.286H563.938V140.64Z" fill="black"/>
<path fill-rule="evenodd" clip-rule="evenodd" d="M455.961 67.7258L456.221 19.4981C477.961 19.5479 481.123 19.6907 481.074 42.965C481.027 65.7029 477.503 67.5337 455.961 67.7258ZM435.15 141.411L455.189 141.745L455.6 85.0735C472.778 85.1929 484.708 84.3076 492.193 73.602C503.547 57.3618 505.779 12.76 480.994 2.97338C472.465 -0.393866 440.761 0.765588 435.183 0.765588L435.15 141.411Z" fill="black"/>
<path d="M723.276 46.8408L704.205 46.685C704.268 38.9312 703.714 33.3598 702.477 29.9599C700.668 24.9799 697.051 22.4621 691.691 22.418C687.76 22.3863 684.767 23.3235 682.735 25.2301C680.703 27.1373 679.681 30.3758 679.643 34.9741C679.606 39.5419 680.76 43.3879 683.097 46.5438C684.521 48.4681 687.419 51.0985 691.814 54.3998C696.197 57.6913 700.641 61.2039 705.127 64.9673C711.06 69.9442 715.327 73.8733 717.843 76.8236C721.318 80.8949 723.742 85.1999 725.193 89.5973C726.657 94.0306 727.361 99.2328 727.312 105.244C727.209 117.776 723.909 127.36 717.429 134.048C710.936 140.749 702.339 144.054 691.62 143.967C679.267 143.866 672.332 140.011 666.666 132.402C661.527 125.497 658.994 115.567 659.1 102.584L659.181 92.6665L678.56 92.8244L678.496 100.758C678.437 107.971 679.387 113.57 681.344 117.553C683.302 121.536 686.783 123.549 691.786 123.589C700.667 123.661 705.151 118.408 705.237 107.799C705.269 103.952 704.572 100.616 703.15 97.7722C701.735 94.9418 699.774 92.3648 697.214 90.1202C694.654 87.8745 690.075 84.123 683.446 78.9166C673.64 71.2158 666.649 64.5088 662.939 58.3419C659.142 52.03 657.509 44.9824 657.57 37.5283C657.764 13.6953 669.142 1.85516 691.704 2.03897C703.291 2.13347 710.243 5.67051 715.718 12.7238C720.901 19.4022 723.407 30.7907 723.276 46.8403L723.276 46.8408Z" fill="black"/>
<path d="M626.821 96.4472V2.04639H646.786V98.6986C646.786 114.703 644.329 126.125 638.675 132.869C632.462 140.279 624.137 143.972 608.695 143.972C593.139 143.972 584.374 139.644 578.128 132.266C572.392 125.49 569.182 114.705 569.182 98.6986V2.04639H590.224V96.4472C590.224 107.301 593.024 114.428 595.905 117.881C598.785 121.334 603.107 123.062 608.868 123.062C615.898 123.062 620.616 120.282 623.042 114.736C624.648 111.063 626.821 104.96 626.821 96.4477V96.4472Z" fill="black"/>
<path fill-rule="evenodd" clip-rule="evenodd" d="M588.439 81.9707L628.829 32.301V63.14L586.255 114.72V84.4272L588.439 81.9707Z" fill="black"/>
<path fill-rule="evenodd" clip-rule="evenodd" d="M0 152.851H424.427L412.978 169.387H0V152.851Z" fill="#FEFEFE"/>
<path fill-rule="evenodd" clip-rule="evenodd" d="M424.427 152.851H726.016V169.387H412.978L424.427 152.851Z" fill="black"/>
</svg>
