<svg width="154" height="36" viewBox="0 0 154 36" fill="none" xmlns="http://www.w3.org/2000/svg">
<path fill-rule="evenodd" clip-rule="evenodd" d="M83.3605 17.9138L76.9682 0.382016L72.878 0.343206L72.8711 29.9983L77.0987 30.0078L77.1131 12.1636L83.6088 30.0008L87.615 29.9956L87.8584 0.318359L83.4076 0.328913L83.3605 17.9138Z" fill="#FEFEFE"/>
<path fill-rule="evenodd" clip-rule="evenodd" d="M26.6469 22.1605C26.6466 24.3239 26.1328 25.8556 23.8237 25.8645C21.8387 25.8722 20.6987 24.3706 20.9942 22.296C21.0765 21.7191 25.9885 15.6457 26.6346 15.2041L26.6469 22.1605ZM20.9908 15.5761C20.951 12.9012 20.8833 9.86622 20.9904 7.21354C21.1196 4.01654 24.5082 3.91572 25.8693 5.16917C26.5835 5.82684 26.923 7.46696 26.6008 8.64608C26.484 9.07398 25.9954 9.56872 25.6759 9.9367C24.7767 10.9723 21.3945 15.3657 20.9907 15.5761H20.9908ZM24.0018 29.9589C26.479 30.109 28.8632 28.3084 29.7534 26.9325C31.2189 24.6674 30.973 22.4009 30.9119 19.2288C31.0411 16.4489 30.9229 13.3648 30.9229 10.5489C30.9229 7.72137 31.1441 5.01569 29.67 2.96143C26.9169 -0.875439 20.6003 -0.983624 17.9106 3.18538C16.4545 5.44216 16.7737 7.74159 16.7737 10.6941C16.7737 13.6454 16.7737 16.5967 16.7737 19.5479C16.7737 22.3921 16.5787 25.034 18.0345 27.0804C19.1016 28.5804 21.2169 30.1423 24.0018 29.959V29.9589Z" fill="#FEFEFE"/>
<path fill-rule="evenodd" clip-rule="evenodd" d="M61.7998 4.6595C64.1339 4.06383 65.3675 5.65843 65.3861 7.78922L65.3831 21.4346C65.3837 23.671 65.3697 25.5434 63.1915 25.9702C60.9699 26.4056 59.7452 24.9779 59.7178 22.8928L59.7196 9.24243C59.7196 7.53734 59.6385 5.21108 61.7998 4.65961V4.6595ZM59.1368 0.874635C57.7103 1.67435 56.7649 2.58808 56.0698 4.18576C54.9674 6.72025 55.5002 17.6576 55.4971 20.9992C55.4942 24.1517 55.6936 26.1272 57.4349 27.8824C58.8008 29.2592 61.5904 30.4074 64.3314 29.7179C66.6911 29.1243 68.3056 27.647 69.1121 25.6512C70.0869 23.2397 69.632 11.844 69.6335 8.37147C69.6348 5.08409 69.1954 3.52171 67.3774 1.82618C65.2691 -0.14002 61.6582 -0.53878 59.1368 0.874635Z" fill="#FEFEFE"/>
<path fill-rule="evenodd" clip-rule="evenodd" d="M4.78734 14.3401L4.84242 4.39102C9.44547 4.40158 10.115 4.16916 10.1047 9.09731C10.0947 13.9118 9.34861 14.2995 4.78734 14.3401ZM0.380859 29.942L4.62385 30.0128C4.6598 28.1086 4.48445 18.9599 4.71082 18.0132C8.34803 18.0385 10.8742 17.8511 12.459 15.5843C14.8631 12.1458 15.3357 2.70176 10.0876 0.629577C8.28195 -0.0833964 1.52514 -0.11539 0.387787 0.162104L0.380859 29.942Z" fill="#FEFEFE"/>
<path fill-rule="evenodd" clip-rule="evenodd" d="M48.6445 4.17413C48.5382 5.02079 44.6717 15.5804 44.3179 16.5225C43.5421 18.588 42.874 20.6764 42.0995 22.7211C40.7748 26.2183 40.7117 26.0626 40.7793 29.7042C40.7692 30.024 40.7779 30.0529 40.7992 30.053C40.8179 30.053 40.8619 30.0542 40.9503 30.0581L53.3388 30.0552L53.333 25.6546L45.2989 25.6525C45.5463 23.9962 47.7035 18.8365 48.3674 17.1014L52.2572 6.46851C53.3042 3.49952 53.5101 4.18226 53.2988 0.218962L46.706 0.219072L41.2014 0.196533L41.2068 4.17775L48.6446 4.17413H48.6445Z" fill="#FEFEFE"/>
<path fill-rule="evenodd" clip-rule="evenodd" d="M34.3995 15.1629L34.421 30.0275L38.6119 29.9962L38.6152 9.93032L38.6235 0.343262L34.3789 0.347658L34.3995 15.1629Z" fill="#FEFEFE"/>
<path d="M119.408 29.779H108.045V0.43335H112.39V25.4691H119.408V29.779Z" fill="white"/>
<path fill-rule="evenodd" clip-rule="evenodd" d="M96.5451 14.3399L96.6001 4.1283C101.203 4.13886 101.873 4.16909 101.862 9.09713C101.852 13.9116 101.106 14.2993 96.5451 14.3399ZM92.1387 29.9418L96.3817 30.0126L96.4686 18.0131C100.106 18.0384 102.632 17.8509 104.217 15.5841C106.621 12.1455 107.093 2.70158 101.845 0.629398C100.04 -0.0835763 93.3267 0.161924 92.1456 0.161924L92.1387 29.9418Z" fill="white"/>
<path d="M153.145 9.91783L149.107 9.88485C149.12 8.24309 149.003 7.06341 148.741 6.34351C148.358 5.28906 147.592 4.75595 146.457 4.7466C145.625 4.7399 144.991 4.93834 144.561 5.34205C144.131 5.74586 143.914 6.43157 143.906 7.40522C143.898 8.37238 144.143 9.18672 144.637 9.85495C144.939 10.2624 145.553 10.8194 146.483 11.5184C147.411 12.2153 148.352 12.959 149.302 13.7559C150.558 14.8097 151.462 15.6416 151.995 16.2663C152.73 17.1284 153.244 18.0399 153.551 18.971C153.861 19.9097 154.01 21.0112 153.999 22.284C153.978 24.9375 153.279 26.9668 151.907 28.3828C150.532 29.8017 148.712 30.5016 146.442 30.483C143.827 30.4618 142.358 29.6455 141.159 28.0343C140.07 26.5724 139.534 24.4699 139.556 21.7208L139.574 19.6209L143.677 19.6543L143.663 21.3342C143.651 22.8614 143.852 24.0469 144.266 24.8903C144.681 25.7337 145.418 26.1598 146.477 26.1684C148.358 26.1836 149.307 25.0713 149.326 22.8249C149.332 22.0104 149.185 21.3041 148.884 20.7019C148.584 20.1026 148.169 19.557 147.627 19.0817C147.085 18.6062 146.115 17.8119 144.711 16.7095C142.635 15.0789 141.155 13.6588 140.369 12.353C139.565 11.0166 139.22 9.52435 139.233 7.94602C139.274 2.89969 141.683 0.392679 146.46 0.431599C148.913 0.451608 150.385 1.20053 151.545 2.69399C152.642 4.10806 153.173 6.51942 153.145 9.91773L153.145 9.91783Z" fill="white"/>
<path d="M132.722 20.4216V0.43335H136.949V20.8983C136.949 24.2869 136.429 26.7054 135.232 28.1335C133.916 29.7024 132.154 30.4843 128.884 30.4843C125.59 30.4843 123.734 29.5679 122.412 28.0057C121.197 26.5711 120.518 24.2875 120.518 20.8983V0.43335H124.973V20.4216C124.973 22.7198 125.566 24.2288 126.176 24.9599C126.786 25.6911 127.701 26.057 128.921 26.057C130.409 26.057 131.408 25.4684 131.922 24.294C132.262 23.5163 132.722 22.224 132.722 20.4217V20.4216Z" fill="white"/>
<path fill-rule="evenodd" clip-rule="evenodd" d="M124.595 17.3563L133.147 6.83936V13.3691L124.133 24.2906V17.8764L124.595 17.3563Z" fill="white"/>
<path fill-rule="evenodd" clip-rule="evenodd" d="M0 32.3643H89.8671L87.4431 35.8656H0V32.3643Z" fill="#FEFEFE"/>
<path fill-rule="evenodd" clip-rule="evenodd" d="M89.8674 32.3643H153.725V35.8656H87.4434L89.8674 32.3643Z" fill="white"/>
</svg>
