<svg width="24" height="24" viewBox="0 0 24 24" fill="none" xmlns="http://www.w3.org/2000/svg">
<path fill-rule="evenodd" clip-rule="evenodd" d="M12 0C15.3136 0 18.3141 1.34344 20.4853 3.51469C22.6566 5.68594 24 8.68641 24 12C24 15.3136 22.6566 18.3141 20.4853 20.4853C18.3141 22.6566 15.3136 24 12 24C8.68641 24 5.68594 22.6566 3.51469 20.4853C1.34344 18.3141 0 15.3136 0 12C0 8.68641 1.34344 5.68594 3.51469 3.51469C5.68594 1.34344 8.68641 0 12 0ZM11.5219 8.99438C11.1905 8.99203 10.9073 8.87578 10.6688 8.64C10.4311 8.40516 10.3144 8.11922 10.3144 7.78453C10.3144 7.45594 10.4311 7.17234 10.6688 6.93703C10.9073 6.70172 11.1905 6.58313 11.5219 6.58313C11.8477 6.58313 12.1313 6.70172 12.3694 6.93703C12.6103 7.17234 12.7289 7.45594 12.7289 7.78453C12.7289 8.00578 12.6727 8.20969 12.562 8.39109C12.4514 8.57531 12.3066 8.7225 12.1256 8.83031C11.9442 8.93813 11.7427 8.99203 11.5219 8.99438ZM12.8316 16.043H14.198V17.4173H9.80156V16.043H11.1497V11.7145H9.80156V10.3402H12.8316V16.043Z" fill="#47BCC1"/>
</svg>
