<svg width="68" height="64" viewBox="0 0 68 64" fill="none" xmlns="http://www.w3.org/2000/svg">
<path d="M3.25257 37.6457C2.09245 37.6457 1.46068 37.1638 1.13352 36.7591C0.811994 36.3619 0.479189 35.6579 0.71046 34.5662L5.8398 10.6495L2.61704 10.832H2.5926C1.6205 10.832 0.915408 10.5158 0.473548 9.96805C0.268643 9.7125 0.124704 9.4135 0.0526932 9.09382C-0.019317 8.77415 -0.0174982 8.44224 0.0580113 8.12338C0.34005 6.80199 1.71828 5.70272 3.1924 5.62178L10.7285 5.19449C10.8643 5.18515 11.0003 5.18013 11.1365 5.17944C11.4129 5.17944 12.1443 5.17944 12.6087 5.75543C13.0825 6.34271 12.9227 7.08999 12.8701 7.33469L6.99616 34.7356C6.64455 36.3996 5.2682 37.5384 3.4876 37.6381L3.25257 37.6457ZM23.4522 33.881C20.7465 33.881 18.4977 32.8665 16.9483 30.9465C14.7616 28.2378 14.19 24.0741 15.2975 18.9053C17.2379 9.84759 23.2096 3.49664 30.1553 3.10324C33.1449 2.93571 35.6193 3.95405 37.2871 6.01895C39.4738 8.72761 40.0454 12.8913 38.9379 18.0601C36.9975 27.1141 31.0258 33.465 24.0764 33.8603C23.8686 33.8746 23.6604 33.8816 23.4522 33.881ZM29.8713 8.00668L29.6138 8.01421C25.9661 8.22314 22.9294 12.3511 21.491 19.0559C20.5923 23.2497 20.7747 26.395 22.0025 27.916C22.5609 28.6087 23.3506 28.9606 24.3509 28.9606L24.6142 28.9531C28.2618 28.7479 31.2966 24.6219 32.7331 17.9152C33.6319 13.7214 33.4514 10.5742 32.2254 9.05325C31.6689 8.35867 30.8754 8.00668 29.8713 8.00668ZM51.6654 30.7959C48.9597 30.7959 46.7072 29.7813 45.1559 27.8595C42.9692 25.1508 42.3976 20.9871 43.5051 15.8183C45.4474 6.7587 51.4191 0.409642 58.3647 0.0181194C61.3788 -0.151289 63.8231 0.87081 65.4909 2.93383C67.6777 5.64249 68.2493 9.80617 67.1418 14.9731C65.2032 24.0252 59.2334 30.3761 52.284 30.7771C52.0734 30.7921 51.8685 30.7959 51.6654 30.7959ZM58.0789 4.91968L57.8232 4.92721C54.1737 5.13614 51.137 9.26407 49.7005 15.967C48.8018 20.1627 48.9841 23.3099 50.212 24.829C50.7704 25.5217 51.5639 25.8736 52.5642 25.8736L52.8274 25.8661C56.4732 25.6609 59.5098 21.533 60.9463 14.8282C61.847 10.6363 61.6665 7.48904 60.4387 5.96813C59.8783 5.27167 59.0849 4.91968 58.0789 4.91968ZM20.6863 64C19.8054 63.9995 18.9525 63.6895 18.2764 63.1241C17.6003 62.5587 17.1439 61.7737 16.9866 60.906C16.8293 60.0383 16.9811 59.1428 17.4157 58.3756C17.8502 57.6084 18.5399 57.0183 19.3645 56.7079C19.9981 56.4707 35.1567 50.8577 57.9774 48.9527C58.9656 48.8802 59.9425 49.2011 60.6957 49.8457C61.4489 50.4902 61.9176 51.4063 61.9998 52.3948C62.0821 53.3834 61.7713 54.3645 61.135 55.1249C60.4986 55.8853 59.5882 56.3635 58.6017 56.4557C36.8095 58.274 22.151 63.7045 22.0044 63.7591C21.5719 63.9209 21.1244 64 20.6863 64ZM3.76588 52.7042C2.88805 52.7039 2.038 52.3961 1.36303 51.8343C0.688049 51.2724 0.23068 50.4919 0.0701744 49.6279C-0.0903314 48.7639 0.0561397 47.871 0.484207 47.1038C0.912274 46.3365 1.59496 45.7434 2.41397 45.4272C3.43307 45.0338 27.8275 35.7784 63.7329 33.8867C64.2269 33.8572 64.7217 33.9263 65.1888 34.0899C65.6559 34.2535 66.0859 34.5084 66.4537 34.8397C66.8216 35.1711 67.1201 35.5722 67.3318 36.02C67.5435 36.4678 67.6643 36.9532 67.6871 37.448C67.7132 37.9418 67.6419 38.4359 67.4772 38.9021C67.3126 39.3683 67.0578 39.7974 66.7274 40.165C66.3971 40.5326 65.9976 40.8314 65.5519 41.0445C65.1061 41.2575 64.6229 41.3805 64.1296 41.4065C29.4897 43.2324 5.35093 52.3635 5.11026 52.4557C4.68087 52.6194 4.22534 52.7036 3.76588 52.7042Z" fill="white"/>
</svg>
