<svg width="62" height="64" viewBox="0 0 62 64" fill="none" xmlns="http://www.w3.org/2000/svg">
<path d="M61.4072 22.1345C61.368 21.7557 61.3876 21.6316 61.1525 21.2789C61.0219 21.083 60.7802 20.874 60.5124 20.6584L30.3183 0.215532C30.1224 0.0783754 29.8872 0.00653128 29.6456 0L14.7412 0.0261251C14.2056 0.0195938 13.7354 0.346158 13.5656 0.842535C13.4023 1.33238 13.5786 1.87448 14.0097 2.17492L20.6716 7.14522L17.0206 9.73814C16.89 9.77079 16.7594 9.82957 16.6418 9.90795L0.57487 20.9327C0.261368 21.1548 -0.00641426 21.3116 0.000117019 21.6969V42.7211L0.509557 43.1195L29.9722 63.7779L30.0179 63.7583C30.0701 63.7975 30.1158 63.8367 30.1746 63.8694C30.351 63.9543 30.5404 64 30.7298 64C30.978 64 31.2131 63.9282 31.4221 63.7779L60.8847 43.2632C61.2047 43.0411 61.3941 42.6819 61.3941 42.29V22.3108C61.4072 22.2521 61.4137 22.1933 61.4072 22.1345ZM17.5758 1.97245L29.2211 1.93979L57.5146 20.9393L43.7989 20.0576L17.5758 1.97245ZM22.9118 8.84988L42.9498 22.6309L55.7642 23.5126L45.4905 30.3051L18.3008 11.7432L22.9118 8.84988ZM29.4627 60.5319L2.41016 41.6957V24.6099L29.4627 43.4395V60.5319ZM30.7037 40.8531L3.35066 21.9582L16.4981 12.9319L43.7466 31.938L30.7037 40.8531ZM58.9906 41.6957L31.9446 60.5254V43.6551L58.9906 24.6099V41.6957Z" fill="white"/>
</svg>
