<svg width="63" height="64" viewBox="0 0 63 64" fill="none" xmlns="http://www.w3.org/2000/svg">
<path d="M43.6089 0.215016C44.8169 0.0517742 46.0706 -0.150645 47.272 0.169308C48.3363 0.423965 49.2897 1.1357 49.8055 2.10862C50.341 3.05542 50.4585 4.15893 50.5695 5.22327C50.6805 7.43683 50.6152 9.65038 50.6283 11.8639C49.6357 11.8639 48.6432 11.8639 47.6507 11.8639C47.6507 10.2838 47.6507 8.70358 47.6507 7.1234C47.6311 5.98724 47.6377 4.82496 47.2851 3.73451C47.1284 3.22519 46.5929 2.99665 46.0967 2.99012C44.7189 2.95748 43.3738 3.31661 42.0417 3.63656C32.306 6.30066 22.5703 8.9713 12.8411 11.6746C12.2077 11.8574 11.5613 11.9945 10.9605 12.2557C9.9158 12.6997 8.8384 13.085 7.85242 13.6531C6.57261 14.2669 5.37768 15.07 4.46353 16.167C5.89353 15.2332 7.61736 14.8023 9.3216 14.848C24.0133 14.848 38.6986 14.848 53.3903 14.848C56.7074 14.8023 59.9069 16.7938 61.4871 19.6734C62.2119 20.8814 62.558 22.2983 62.5514 23.7022C62.5514 33.9342 62.5514 44.1662 62.5514 54.3982C62.558 55.5539 62.558 56.7358 62.2315 57.8524C61.6373 60.0855 60.044 62.0248 57.9807 63.063C56.5833 63.8205 54.9574 64.0294 53.3903 63.9968C38.6529 63.9968 23.9154 63.9968 9.17142 63.9968C7.55859 64.0294 5.90005 63.8074 4.47659 63.0043C2.19774 61.8355 0.54573 59.537 0.134361 57.01C0.0429455 56.2918 -0.0158215 55.567 0.00376748 54.8357C0.00376748 46.6409 0.00376748 38.4462 0.00376748 30.2515C0.0168268 26.8038 -0.0615292 23.3561 0.167009 19.915C0.310662 18.596 0.513081 17.264 1.08769 16.056C2.10632 13.8032 4.13705 12.1774 6.31795 11.1065C7.65653 10.3425 9.10612 9.80709 10.5361 9.23901C18.7374 6.9471 26.9517 4.69437 35.166 2.44163C37.9672 1.69072 40.7489 0.802686 43.6089 0.215016ZM8.01567 17.9039C5.56051 18.3283 3.69303 20.4962 3.09883 22.8403C2.94212 23.9895 3.05965 25.1518 2.96824 26.3076C2.95518 35.9062 2.96824 45.5048 2.96171 55.1034C2.97477 55.8347 3.01394 56.5791 3.24901 57.2778C3.75832 58.8906 5.09038 60.2161 6.7032 60.7254C7.58471 61.0193 8.52498 61.0127 9.43913 61.0062C24.2745 61.0062 39.1165 61.0127 53.9519 61.0062C55.2578 61.0127 56.5833 60.6079 57.5889 59.7525C58.8883 58.7143 59.5739 57.0427 59.5543 55.3972C59.5608 44.8779 59.5543 34.3586 59.5543 23.8393C59.6457 21.2079 57.5954 18.8637 55.1664 18.0932C54.2718 17.7602 53.2989 17.8255 52.3586 17.819C38.0064 17.819 23.6542 17.819 9.30201 17.819C8.87105 17.819 8.44009 17.8386 8.01567 17.9039ZM50.3736 35.8409C52.0778 35.325 54.0563 36.2522 54.755 37.8912C55.3623 39.1971 55.1076 40.8361 54.1347 41.9004C53.214 42.9451 51.673 43.3826 50.341 42.9778C48.7869 42.5534 47.6377 41.0189 47.6638 39.4126C47.6377 37.7867 48.8065 36.2457 50.3736 35.8409Z" fill="white"/>
</svg>
