<svg width="172" height="40" viewBox="0 0 172 40" fill="none" xmlns="http://www.w3.org/2000/svg">
<path fill-rule="evenodd" clip-rule="evenodd" d="M92.9128 19.9575L85.7856 0.433313L81.2069 0.390118V33.4344H85.9152L85.9584 13.5646L93.172 33.4344H97.6211L97.9234 0.346924L92.956 0.390118L92.9128 19.9575Z" fill="#43BABE"/>
<path fill-rule="evenodd" clip-rule="evenodd" d="M29.6751 24.7089C29.6751 27.1278 29.1135 28.8124 26.5218 28.8556C24.3189 28.8556 23.023 27.171 23.3686 24.8816C23.455 24.2337 28.9408 17.4521 29.6751 16.9769V24.7089ZM23.3686 17.3657C23.8005 17.1497 27.6017 12.2254 28.5952 11.0592C28.9408 10.6704 29.5023 10.1089 29.6319 9.63373C29.9774 8.33788 29.6319 6.48049 28.8112 5.74617C27.2993 4.36392 23.4982 4.45031 23.3686 8.03551C23.2822 11.016 23.3254 14.3852 23.3686 17.3657ZM26.7378 33.3911C29.5023 33.5639 32.1372 31.5337 33.1307 30.0219C34.7721 27.5165 34.4697 24.968 34.4265 21.426C34.5561 18.316 34.4265 14.9035 34.4265 11.7503C34.4265 8.59705 34.6857 5.57338 33.0443 3.28404C29.9774 -0.992283 22.9366 -1.12187 19.9562 3.54321C18.3147 6.04853 18.7035 8.64024 18.7035 11.9231C18.7035 15.2059 18.7035 18.4887 18.7035 21.7716C18.7035 24.9248 18.4875 27.9053 20.1289 30.1514C21.2952 31.8792 23.6277 33.6071 26.7378 33.3911Z" fill="#43BABE"/>
<path fill-rule="evenodd" clip-rule="evenodd" d="M68.8531 5.18458C71.4448 4.53665 72.8271 6.30765 72.8703 8.68339V23.8881C72.8703 26.3934 72.8703 28.4668 70.4082 28.9419C67.946 29.4171 66.5638 27.8189 66.5206 25.5295V10.3248C66.5638 8.42422 66.4774 5.83251 68.8531 5.18458ZM65.9159 0.994649C64.3176 1.90175 63.281 2.89524 62.5034 4.66624C61.294 7.47393 61.8555 19.6982 61.8555 23.4129C61.8555 26.9118 62.0715 29.1147 64.0153 31.1017C65.5271 32.6567 68.6372 33.9094 71.704 33.1319C74.3389 32.4839 76.1531 30.8425 77.017 28.5964C78.0969 25.9183 77.5786 13.2189 77.5786 9.33132C77.5786 5.65973 77.1034 3.93192 75.0732 2.03133C72.7407 -0.128425 68.7236 -0.603572 65.9159 0.994649Z" fill="#43BABE"/>
<path fill-rule="evenodd" clip-rule="evenodd" d="M5.31306 15.9835L5.35626 4.88236C10.4965 4.88236 11.2308 4.62318 11.2308 10.109C11.2308 15.5084 10.4101 15.9403 5.31306 15.9835ZM0.432007 33.3912L5.14028 33.4776C5.18348 31.361 4.9675 21.1669 5.22667 20.0871C9.28702 20.1303 12.0947 19.9143 13.8657 17.3658C16.5438 13.5214 17.0622 3.02496 11.2308 0.69242C9.20063 -0.085093 1.68467 -0.128287 0.432007 0.174079V33.3912Z" fill="#43BABE"/>
<path fill-rule="evenodd" clip-rule="evenodd" d="M54.21 4.66639C54.0804 5.61668 49.7608 17.3658 49.3721 18.4457C48.5082 20.735 47.7739 23.0675 46.91 25.3569C45.4413 29.2444 45.3549 29.0717 45.4413 33.132C45.4413 33.4776 45.4413 33.5208 45.4845 33.5208C45.4845 33.5208 45.5709 33.5208 45.6573 33.5208H59.4798V28.5965H50.5384C50.7975 26.7391 53.2165 20.9942 53.9508 19.0504L58.2703 7.21491C59.4366 3.88888 59.6525 4.66639 59.4366 0.26048H52.0934L45.9597 0.217285V4.66639H54.21Z" fill="#43BABE"/>
<path fill-rule="evenodd" clip-rule="evenodd" d="M38.3141 16.8906L38.3573 33.4775L43.0224 33.4343V11.0592V0.390015H38.3141V16.8906Z" fill="#43BABE"/>
<path fill-rule="evenodd" clip-rule="evenodd" d="M133.084 33.1753H120.428V0.476562H125.266V28.3807H133.084V33.1753Z" fill="#010005"/>
<path fill-rule="evenodd" clip-rule="evenodd" d="M107.599 15.9835L107.642 4.62314C112.783 4.62314 113.517 4.66633 113.517 10.1521C113.517 15.5083 112.696 15.9403 107.599 15.9835ZM102.675 33.3911L107.383 33.4775L107.47 20.087C111.53 20.1302 114.338 19.9142 116.109 17.3657C118.787 13.5213 119.305 3.02492 113.474 0.692377C111.444 -0.0851362 103.971 0.174036 102.675 0.174036V33.3911Z" fill="#010005"/>
<path fill-rule="evenodd" clip-rule="evenodd" d="M170.664 11.0591L166.172 11.0159C166.172 9.20175 166.042 7.8627 165.783 7.08519C165.351 5.91891 164.487 5.31418 163.235 5.31418C162.327 5.31418 161.593 5.53016 161.118 5.96211C160.643 6.39406 160.384 7.17157 160.384 8.25145C160.384 9.33133 160.643 10.2384 161.204 10.9728C161.55 11.4479 162.241 12.0526 163.278 12.8301C164.314 13.6077 165.351 14.4284 166.431 15.3355C167.813 16.5017 168.85 17.452 169.412 18.1432C170.232 19.0934 170.794 20.1301 171.139 21.1668C171.485 22.2035 171.658 23.4562 171.658 24.8384C171.614 27.7757 170.837 30.065 169.325 31.62C167.813 33.2183 165.783 33.9958 163.235 33.9526C160.341 33.9094 158.699 33.0023 157.36 31.2313C156.151 29.5899 155.546 27.2573 155.589 24.1905V21.8579L160.168 21.9011V23.7585C160.168 25.4431 160.384 26.7822 160.859 27.7325C161.334 28.6828 162.155 29.1579 163.321 29.1579C165.438 29.1579 166.474 27.9485 166.474 25.4431C166.474 24.536 166.301 23.7585 165.999 23.0674C165.654 22.4195 165.222 21.7715 164.617 21.2532C164.012 20.7349 162.932 19.8278 161.377 18.6183C159.045 16.8041 157.403 15.2059 156.539 13.7804C155.632 12.3118 155.243 10.6272 155.287 8.85619C155.33 3.24081 158.008 0.433126 163.321 0.476321C166.042 0.519516 167.684 1.34023 168.98 2.98164C170.103 4.57986 170.707 7.25796 170.664 11.0591Z" fill="#010005"/>
<path fill-rule="evenodd" clip-rule="evenodd" d="M147.9 22.7653V0.476562H152.609V23.2836C152.609 27.0416 152.047 29.7629 150.708 31.3611C149.239 33.0889 147.296 33.996 143.624 33.996C139.952 33.996 137.879 32.9593 136.41 31.2315C135.071 29.6333 134.294 27.0848 134.294 23.3268V0.51976H139.261V22.8085C139.261 25.357 139.909 27.0416 140.6 27.8623C141.291 28.683 142.285 29.0718 143.667 29.0718C145.309 29.0718 146.432 28.4238 146.993 27.128C147.382 26.2209 147.9 24.7955 147.9 22.7653Z" fill="#010005"/>
<path fill-rule="evenodd" clip-rule="evenodd" d="M138.872 19.3527L148.375 7.64685V14.9036L138.354 27.0847V19.9143L138.872 19.3527Z" fill="#010005"/>
<path fill-rule="evenodd" clip-rule="evenodd" d="M0 36.0693H100.17L97.4483 40.0001H0V36.0693Z" fill="#43BABE"/>
<path fill-rule="evenodd" clip-rule="evenodd" d="M100.17 36.0693H171.312V40.0001H97.4484L100.17 36.0693Z" fill="#010005"/>
</svg>
