<svg width="145" height="43" viewBox="0 0 145 43" fill="none" xmlns="http://www.w3.org/2000/svg">
<g clip-path="url(#clip0_1_436)">
<path d="M139.63 0H5.37037C2.4044 0 0 2.40647 0 5.375V37.625C0 40.5935 2.4044 43 5.37037 43H139.63C142.596 43 145 40.5935 145 37.625V5.375C145 2.40647 142.596 0 139.63 0Z" fill="black"/>
<path d="M139.63 0.86C140.826 0.86 141.973 1.33569 142.819 2.18241C143.665 3.02914 144.141 4.17755 144.141 5.375V37.625C144.141 38.8225 143.665 39.9709 142.819 40.8176C141.973 41.6643 140.826 42.14 139.63 42.14H5.37037C4.17395 42.14 3.02653 41.6643 2.18053 40.8176C1.33454 39.9709 0.859259 38.8225 0.859259 37.625V5.375C0.859259 4.17755 1.33454 3.02914 2.18053 2.18241C3.02653 1.33569 4.17395 0.86 5.37037 0.86H139.63ZM139.63 0H5.37037C3.94606 0 2.58008 0.566293 1.57294 1.5743C0.565805 2.58231 0 3.94946 0 5.375V37.625C0 39.0505 0.565805 40.4177 1.57294 41.4257C2.58008 42.4337 3.94606 43 5.37037 43H139.63C141.054 43 142.42 42.4337 143.427 41.4257C144.434 40.4177 145 39.0505 145 37.625V5.375C145 3.94946 144.434 2.58231 143.427 1.5743C142.42 0.566293 141.054 0 139.63 0Z" fill="black"/>
<path d="M34.4916 20.7616C34.4619 17.4604 37.1923 15.8543 37.3172 15.7795C35.7708 13.5231 33.3741 13.2148 32.5318 13.1902C30.5188 12.9782 28.5662 14.3958 27.5408 14.3958C26.4949 14.3958 24.9158 13.2107 23.2139 13.2455C21.0239 13.2793 18.9751 14.5484 17.8514 16.5191C15.5324 20.5373 17.2619 26.4422 19.4837 29.6901C20.5951 31.2808 21.8938 33.0569 23.5936 32.9944C25.2566 32.9258 25.8778 31.9333 27.8846 31.9333C29.8731 31.9333 30.4564 32.9944 32.19 32.9544C33.9748 32.9258 35.0985 31.3566 36.171 29.7516C37.4553 27.9284 37.9711 26.1328 37.9916 26.0406C37.9496 26.0263 34.5254 24.7183 34.4916 20.7616Z" fill="white"/>
<path d="M31.2167 11.0535C32.1112 9.93394 32.7232 8.41085 32.5533 6.86523C31.2587 6.92259 29.6397 7.76147 28.7074 8.85641C27.8826 9.82127 27.1457 11.4027 27.3361 12.89C28.7903 12.9985 30.2834 12.1556 31.2167 11.0535Z" fill="white"/>
<path d="M58.5583 32.7657H56.2342L54.9611 28.7618H50.536L49.3232 32.7657H47.0605L51.4447 19.1348H54.1526L58.5583 32.7657ZM54.5773 27.0821L53.426 23.5227C53.3042 23.1591 53.076 22.3028 52.7393 20.9549H52.6984C52.5643 21.5346 52.3484 22.3909 52.0516 23.5227L50.9208 27.0821H54.5773Z" fill="white"/>
<path d="M69.8326 27.7305C69.8326 29.4021 69.3813 30.7234 68.4786 31.6933C67.6702 32.5568 66.6662 32.988 65.4678 32.988C64.1743 32.988 63.2451 32.523 62.6791 31.593H62.6382V36.7706H60.4563V26.1725C60.4563 25.1216 60.4287 24.0431 60.3755 22.9369H62.2943L62.4161 24.4948H62.4571C63.1847 23.321 64.2889 22.7351 65.7708 22.7351C66.9292 22.7351 67.8963 23.193 68.67 24.1097C69.4457 25.0274 69.8326 26.234 69.8326 27.7305ZM67.6098 27.8103C67.6098 26.8537 67.3949 26.065 66.963 25.4443C66.4912 24.797 65.8578 24.4733 65.0636 24.4733C64.5253 24.4733 64.0361 24.6536 63.5991 25.009C63.1611 25.3675 62.8746 25.8356 62.7405 26.4153C62.673 26.6857 62.6392 26.9069 62.6392 27.0811V28.7199C62.6392 29.4348 62.8582 30.0381 63.2962 30.5308C63.7342 31.0235 64.3032 31.2693 65.0032 31.2693C65.825 31.2693 66.4646 30.9518 66.9221 30.3188C67.3806 29.6848 67.6098 28.849 67.6098 27.8103Z" fill="white"/>
<path d="M81.1279 27.7305C81.1279 29.4021 80.6766 30.7234 79.773 31.6933C78.9655 32.5568 77.9616 32.988 76.7632 32.988C75.4697 32.988 74.5404 32.523 73.9755 31.593H73.9346V36.7706H71.7527V26.1725C71.7527 25.1216 71.7251 24.0431 71.6719 22.9369H73.5907L73.7125 24.4948H73.7534C74.48 23.321 75.5843 22.7351 77.0672 22.7351C78.2246 22.7351 79.1917 23.193 79.9674 24.1097C80.7401 25.0274 81.1279 26.234 81.1279 27.7305ZM78.9052 27.8103C78.9052 26.8537 78.6892 26.065 78.2574 25.4443C77.7856 24.797 77.1541 24.4733 76.359 24.4733C75.8197 24.4733 75.3315 24.6536 74.8935 25.009C74.4555 25.3675 74.17 25.8356 74.0359 26.4153C73.9694 26.6857 73.9346 26.9069 73.9346 27.0811V28.7199C73.9346 29.4348 74.1536 30.0381 74.5895 30.5308C75.0276 31.0225 75.5966 31.2693 76.2986 31.2693C77.1204 31.2693 77.76 30.9518 78.2174 30.3188C78.6759 29.6848 78.9052 28.849 78.9052 27.8103Z" fill="white"/>
<path d="M93.7566 28.9432C93.7566 30.1026 93.3544 31.046 92.5469 31.7742C91.6596 32.5701 90.4244 32.9675 88.8372 32.9675C87.3717 32.9675 86.1968 32.6848 85.3075 32.1184L85.8131 30.2983C86.7709 30.878 87.822 31.1689 88.9671 31.1689C89.7889 31.1689 90.4285 30.9825 90.888 30.6117C91.3455 30.2409 91.5737 29.7431 91.5737 29.1224C91.5737 28.5693 91.3854 28.1033 91.0077 27.7253C90.6322 27.3474 90.0048 26.996 89.1288 26.6713C86.7443 25.7813 85.5531 24.4774 85.5531 22.7627C85.5531 21.6422 85.9707 20.7234 86.8068 20.0085C87.6398 19.2925 88.7512 18.9351 90.1409 18.9351C91.3803 18.9351 92.4098 19.1512 93.2316 19.5824L92.6861 21.3626C91.9186 20.9447 91.0507 20.7357 90.0795 20.7357C89.312 20.7357 88.7123 20.9252 88.2825 21.3021C87.9192 21.6391 87.737 22.0499 87.737 22.5364C87.737 23.0751 87.9448 23.5207 88.3623 23.871C88.7256 24.1947 89.3857 24.545 90.3436 24.9229C91.5154 25.3951 92.376 25.9472 92.9297 26.5802C93.4813 27.2111 93.7566 28.0008 93.7566 28.9432Z" fill="white"/>
<path d="M100.97 24.5758H98.5654V29.3478C98.5654 30.5616 98.9891 31.1679 99.8385 31.1679C100.228 31.1679 100.552 31.1341 100.808 31.0665L100.868 32.7248C100.438 32.8856 99.8723 32.9666 99.1713 32.9666C98.3096 32.9666 97.6362 32.7033 97.1501 32.1779C96.6661 31.6514 96.4225 30.7685 96.4225 29.5281V24.5737H94.9897V22.9349H96.4225V21.1353L98.5654 20.4879V22.9349H100.97V24.5758Z" fill="white"/>
<path d="M111.821 27.7705C111.821 29.2813 111.389 30.5217 110.528 31.4916C109.624 32.4903 108.425 32.9881 106.93 32.9881C105.489 32.9881 104.341 32.5098 103.486 31.5531C102.63 30.5964 102.203 29.3888 102.203 27.9333C102.203 26.4103 102.643 25.1627 103.526 24.1927C104.407 23.2217 105.596 22.7362 107.091 22.7362C108.532 22.7362 109.692 23.2145 110.567 24.1722C111.404 25.1012 111.821 26.3007 111.821 27.7705ZM109.558 27.8412C109.558 26.9347 109.364 26.1573 108.972 25.5089C108.515 24.7243 107.861 24.333 107.013 24.333C106.136 24.333 105.47 24.7253 105.013 25.5089C104.621 26.1583 104.427 26.948 104.427 27.8821C104.427 28.7886 104.621 29.566 105.013 30.2134C105.485 30.9979 106.144 31.3892 106.994 31.3892C107.827 31.3892 108.481 30.9897 108.953 30.1929C109.355 29.5322 109.558 28.7466 109.558 27.8412Z" fill="white"/>
<path d="M118.913 24.8574C118.697 24.8174 118.467 24.797 118.226 24.797C117.458 24.797 116.864 25.0868 116.447 25.6676C116.084 26.1797 115.901 26.8271 115.901 27.6086V32.7658H113.721L113.741 26.0322C113.741 24.8994 113.713 23.8679 113.659 22.9379H115.56L115.639 24.8185H115.7C115.93 24.1722 116.293 23.6518 116.791 23.2616C117.277 22.9103 117.802 22.7351 118.368 22.7351C118.569 22.7351 118.752 22.7494 118.913 22.7751V24.8574Z" fill="white"/>
<path d="M128.671 27.3864C128.671 27.7777 128.646 28.1075 128.591 28.3769H122.046C122.071 29.3479 122.388 30.0905 122.996 30.6026C123.547 31.0605 124.26 31.2899 125.137 31.2899C126.106 31.2899 126.99 31.1352 127.785 30.8249L128.127 32.3408C127.198 32.7464 126.101 32.9482 124.835 32.9482C123.312 32.9482 122.116 32.4996 121.247 31.6033C120.379 30.7071 119.944 29.5036 119.944 27.9938C119.944 26.5117 120.348 25.2775 121.158 24.2931C122.005 23.2422 123.15 22.7168 124.591 22.7168C126.006 22.7168 127.078 23.2422 127.805 24.2931C128.382 25.1279 128.671 26.1604 128.671 27.3864ZM126.591 26.82C126.605 26.1727 126.463 25.6134 126.167 25.1412C125.789 24.5338 125.209 24.2307 124.428 24.2307C123.715 24.2307 123.135 24.5267 122.692 25.1208C122.328 25.5929 122.112 26.1594 122.046 26.819H126.591V26.82Z" fill="white"/>
<path d="M52.4703 15.0962H51.3853V13.4777H47.0497V15.0962H45.9466L45.9104 12.5644H46.4394C46.7016 12.3113 46.911 11.9436 47.0678 11.4613C47.2245 10.9761 47.3255 10.4275 47.3707 9.81569L47.5425 6.89514H51.6927V12.5644H52.5291L52.4703 15.0962ZM47.7324 12.5644H50.5534V7.81742H48.632L48.5235 9.67102C48.4421 10.9098 48.1784 11.8742 47.7324 12.5644Z" fill="white"/>
<path d="M53.5391 10.9866C53.5391 10.5074 53.634 10.0764 53.8239 9.69367C54.0138 9.30788 54.2805 9.01251 54.6241 8.80756C54.9677 8.59959 55.3626 8.49561 55.8086 8.49561C56.4687 8.49561 57.0037 8.70809 57.4136 9.13307C57.8265 9.55804 58.0495 10.1216 58.0827 10.8239L58.0872 11.0816C58.0872 11.5638 57.9938 11.9948 57.8069 12.3746C57.623 12.7543 57.3578 13.0482 57.0112 13.2562C56.6676 13.4641 56.2698 13.5681 55.8177 13.5681C55.1275 13.5681 54.5744 13.339 54.1585 12.8809C53.7456 12.4198 53.5391 11.8064 53.5391 11.0409V10.9866ZM54.6377 11.0816C54.6377 11.5849 54.7417 11.9797 54.9496 12.2661C55.1576 12.5494 55.447 12.691 55.8177 12.691C56.1884 12.691 56.4762 12.5464 56.6812 12.257C56.8891 11.9677 56.9931 11.5442 56.9931 10.9866C56.9931 10.4923 56.8861 10.1005 56.6721 9.8112C56.4612 9.52186 56.1733 9.3772 55.8086 9.3772C55.45 9.3772 55.1651 9.52036 54.9542 9.80669C54.7432 10.09 54.6377 10.5149 54.6377 11.0816Z" fill="white"/>
<path d="M61.4887 12.691C61.763 12.691 61.9905 12.6112 62.1714 12.4514C62.3522 12.2917 62.4486 12.0943 62.4607 11.8592H63.496C63.4839 12.1636 63.389 12.4484 63.2112 12.7136C63.0334 12.9759 62.7922 13.1838 62.4878 13.3375C62.1834 13.4912 61.8549 13.5681 61.5023 13.5681C60.8181 13.5681 60.2756 13.3466 59.8747 12.9035C59.4738 12.4605 59.2734 11.8486 59.2734 11.068V10.955C59.2734 10.2105 59.4723 9.6153 59.8702 9.16923C60.268 8.72015 60.8105 8.49561 61.4977 8.49561C62.0794 8.49561 62.5526 8.6659 62.9173 9.00648C63.285 9.34404 63.4779 9.78861 63.496 10.3401H62.4607C62.4486 10.0598 62.3522 9.8293 62.1714 9.64846C61.9935 9.46762 61.766 9.3772 61.4887 9.3772C61.133 9.3772 60.8588 9.5068 60.6659 9.766C60.473 10.0222 60.375 10.4125 60.372 10.9369V11.1132C60.372 11.6437 60.4669 12.04 60.6568 12.3022C60.8497 12.5614 61.127 12.691 61.4887 12.691Z" fill="white"/>
<path d="M68.6383 9.45849H67.0514V13.4776H65.9528V9.45849H64.384V8.58594H68.6383V9.45849Z" fill="white"/>
<path d="M71.6013 11.9043L72.5959 8.58594H73.7669L71.8228 14.219C71.5245 15.0418 71.0181 15.4533 70.3038 15.4533C70.1441 15.4533 69.9677 15.4261 69.7748 15.3719V14.5219L69.9828 14.5355C70.2601 14.5355 70.4681 14.4843 70.6067 14.3818C70.7484 14.2823 70.8599 14.1135 70.9413 13.8754L71.0995 13.455L69.3815 8.58594H70.566L71.6013 11.9043Z" fill="white"/>
<path d="M79.013 13.4776H77.9144V9.47205H76.0066V13.4776H74.908V8.58594H79.013V13.4776Z" fill="white"/>
<path d="M84.7881 13.4776H83.6895V11.5019H81.7862V13.4776H80.6876V8.58594H81.7862V10.6248H83.6895V8.58594H84.7881V13.4776Z" fill="white"/>
<path d="M86.2185 10.9866C86.2185 10.5074 86.3135 10.0764 86.5034 9.69367C86.6932 9.30788 86.96 9.01251 87.3036 8.80756C87.6472 8.59959 88.042 8.49561 88.4881 8.49561C89.1481 8.49561 89.6831 8.70809 90.093 9.13307C90.5059 9.55804 90.729 10.1216 90.7621 10.8239L90.7666 11.0816C90.7666 11.5638 90.6732 11.9948 90.4863 12.3746C90.3025 12.7543 90.0373 13.0482 89.6907 13.2562C89.3471 13.4641 88.9492 13.5681 88.4971 13.5681C87.8069 13.5681 87.2538 13.339 86.8379 12.8809C86.425 12.4198 86.2185 11.8064 86.2185 11.0409V10.9866ZM87.3171 11.0816C87.3171 11.5849 87.4211 11.9797 87.6291 12.2661C87.8371 12.5494 88.1264 12.691 88.4971 12.691C88.8678 12.691 89.1557 12.5464 89.3606 12.257C89.5686 11.9677 89.6726 11.5442 89.6726 10.9866C89.6726 10.4923 89.5656 10.1005 89.3516 9.8112C89.1406 9.52186 88.8528 9.3772 88.4881 9.3772C88.1294 9.3772 87.8446 9.52036 87.6336 9.80669C87.4226 10.09 87.3171 10.5149 87.3171 11.0816Z" fill="white"/>
<path d="M95.0109 13.4776V8.58594H96.9957C97.6648 8.58594 98.1741 8.70348 98.5237 8.93857C98.8734 9.17065 99.0482 9.5052 99.0482 9.94223C99.0482 10.1682 98.9773 10.3717 98.8357 10.5525C98.697 10.7303 98.4906 10.8675 98.2163 10.9639C98.5358 11.0302 98.789 11.1644 98.9758 11.3663C99.1627 11.5682 99.2561 11.8063 99.2561 12.0806C99.2561 12.5357 99.0874 12.8823 98.7498 13.1204C98.4152 13.3585 97.933 13.4776 97.3031 13.4776H95.0109ZM96.1095 11.3934V12.6096H97.3121C97.8757 12.6096 98.1575 12.4076 98.1575 12.0037C98.1575 11.5969 97.8712 11.3934 97.2986 11.3934H96.1095ZM96.1095 10.6068H97.0137C97.6376 10.6068 97.9496 10.4229 97.9496 10.0552C97.9496 9.66947 97.6542 9.47054 97.0635 9.45849H96.1095V10.6068Z" fill="white"/>
</g>
<defs>
<clipPath id="clip0_1_436">
<rect width="145" height="43" fill="white"/>
</clipPath>
</defs>
</svg>
