<svg width="145" height="43" viewBox="0 0 145 43" fill="none" xmlns="http://www.w3.org/2000/svg">
<g clip-path="url(#clip0_1_458)">
<path d="M139.63 0H5.37037C2.4044 0 0 2.40647 0 5.375V37.625C0 40.5935 2.4044 43 5.37037 43H139.63C142.596 43 145 40.5935 145 37.625V5.375C145 2.40647 142.596 0 139.63 0Z" fill="black"/>
<path d="M139.63 0.86C140.826 0.86 141.973 1.33569 142.819 2.18241C143.665 3.02914 144.141 4.17755 144.141 5.375V37.625C144.141 38.8225 143.665 39.9709 142.819 40.8176C141.973 41.6643 140.826 42.14 139.63 42.14H5.37037C4.17395 42.14 3.02653 41.6643 2.18053 40.8176C1.33454 39.9709 0.859259 38.8225 0.859259 37.625V5.375C0.859259 4.17755 1.33454 3.02914 2.18053 2.18241C3.02653 1.33569 4.17395 0.86 5.37037 0.86H139.63ZM139.63 0H5.37037C3.94606 0 2.58008 0.566293 1.57294 1.5743C0.565805 2.58231 0 3.94946 0 5.375V37.625C0 39.0505 0.565805 40.4177 1.57294 41.4257C2.58008 42.4337 3.94606 43 5.37037 43H139.63C141.054 43 142.42 42.4337 143.427 41.4257C144.434 40.4177 145 39.0505 145 37.625V5.375C145 3.94946 144.434 2.58231 143.427 1.5743C142.42 0.566293 141.054 0 139.63 0Z" fill="black"/>
<path d="M73.1876 23.3813C72.2857 23.3855 71.4053 23.6571 70.6574 24.1617C69.9096 24.6663 69.3278 25.3813 68.9856 26.2165C68.6434 27.0517 68.5561 27.9696 68.7346 28.8545C68.9132 29.7393 69.3496 30.5513 69.9888 31.1882C70.6281 31.825 71.4415 32.258 72.3264 32.4325C73.2113 32.6071 74.128 32.5153 74.9609 32.1689C75.7937 31.8225 76.5054 31.2369 77.0061 30.486C77.5067 29.7352 77.7739 28.8527 77.7739 27.95C77.7827 27.3458 77.6698 26.746 77.4422 26.1863C77.2145 25.6266 76.8767 25.1185 76.4488 24.6922C76.0208 24.266 75.5116 23.9302 74.9513 23.705C74.3911 23.4798 73.7912 23.3697 73.1876 23.3813ZM73.1876 30.7235C72.6329 30.7624 72.0794 30.6333 71.599 30.3531C71.1186 30.0729 70.7335 29.6545 70.4938 29.1524C70.2542 28.6502 70.1709 28.0875 70.255 27.5374C70.3391 26.9873 70.5866 26.4752 70.9653 26.0677C71.344 25.6603 71.8364 25.3763 72.3786 25.2526C72.9207 25.129 73.4875 25.1714 74.0052 25.3744C74.5229 25.5774 74.9676 25.9316 75.2815 26.391C75.5954 26.8503 75.764 27.3935 75.7654 27.95C75.7827 28.3026 75.7293 28.6552 75.6083 28.9868C75.4873 29.3184 75.3012 29.6224 75.0609 29.8809C74.8207 30.1394 74.5312 30.3471 74.2094 30.4919C73.8877 30.6366 73.5402 30.7153 73.1876 30.7235ZM63.188 23.3813C62.2856 23.3834 61.4041 23.6532 60.6548 24.1565C59.9056 24.6598 59.3221 25.3741 58.9783 26.2091C58.6344 27.0441 58.5456 27.9624 58.7229 28.8479C58.9003 29.7335 59.3359 30.5465 59.9747 31.1844C60.6135 31.8223 61.4269 32.2564 62.3121 32.4318C63.1973 32.6072 64.1146 32.5161 64.9481 32.17C65.7815 31.8239 66.4938 31.2383 66.995 30.4872C67.4961 29.7361 67.7635 28.8532 67.7635 27.95C67.7723 27.3458 67.6595 26.746 67.4318 26.1863C67.2042 25.6266 66.8663 25.1185 66.4384 24.6922C66.0105 24.266 65.5012 23.9302 64.941 23.705C64.3807 23.4798 63.7809 23.3697 63.1772 23.3813H63.188ZM63.188 30.7235C62.633 30.7645 62.0786 30.6374 61.5969 30.3586C61.1151 30.0799 60.7284 29.6624 60.487 29.1606C60.2457 28.6588 60.1609 28.0959 60.2436 27.5451C60.3264 26.9944 60.5729 26.4813 60.951 26.0728C61.3292 25.6642 61.8214 25.379 62.3638 25.2544C62.9061 25.1298 63.4734 25.1714 63.9918 25.374C64.5101 25.5766 64.9555 25.9306 65.27 26.3901C65.5845 26.8495 65.7535 27.3931 65.755 27.95C65.7723 28.3026 65.7189 28.6552 65.5979 28.9868C65.4769 29.3184 65.2908 29.6224 65.0506 29.8809C64.8103 30.1394 64.5208 30.3471 64.199 30.4919C63.8773 30.6366 63.5299 30.7153 63.1772 30.7235H63.188ZM51.2765 24.7895V26.7245H55.9165C55.8437 27.6359 55.4652 28.4959 54.8424 29.1648C54.3782 29.638 53.8201 30.0088 53.2041 30.2532C52.5881 30.4976 51.9278 30.6102 51.2657 30.5838C49.8984 30.5838 48.5871 30.0401 47.6202 29.0725C46.6534 28.1048 46.1102 26.7923 46.1102 25.4238C46.1102 24.0553 46.6534 22.7428 47.6202 21.7751C48.5871 20.8074 49.8984 20.2638 51.2657 20.2638C52.5737 20.2424 53.8368 20.7411 54.778 21.6505L56.142 20.2853C55.5067 19.6414 54.7487 19.1317 53.9129 18.7864C53.0771 18.4411 52.1806 18.2672 51.2765 18.275C50.3216 18.2378 49.3691 18.394 48.476 18.734C47.5828 19.0741 46.7675 19.5911 46.0788 20.2541C45.3901 20.9171 44.8422 21.7124 44.4679 22.5924C44.0937 23.4724 43.9008 24.419 43.9008 25.3754C43.9008 26.3318 44.0937 27.2784 44.4679 28.1584C44.8422 29.0384 45.3901 29.8337 46.0788 30.4967C46.7675 31.1597 47.5828 31.6767 48.476 32.0168C49.3691 32.3569 50.3216 32.513 51.2765 32.4758C52.1958 32.5174 53.1134 32.3614 53.9675 32.0183C54.8216 31.6753 55.5924 31.1532 56.228 30.487C57.3532 29.2496 57.954 27.623 57.9035 25.9505C57.907 25.5431 57.871 25.1363 57.7961 24.7358L51.2765 24.7895ZM99.9428 26.2945C99.6627 25.4697 99.1389 24.7495 98.4407 24.2293C97.7425 23.7091 96.903 23.4133 96.0332 23.3813C95.4456 23.3801 94.8641 23.4996 94.3246 23.7323C93.785 23.965 93.2989 24.306 92.8962 24.7342C92.4935 25.1624 92.1829 25.6687 91.9835 26.2218C91.7841 26.775 91.7001 27.3632 91.7369 27.95C91.7238 28.5509 91.8319 29.1482 92.0546 29.7063C92.2774 30.2643 92.6102 30.7718 93.0333 31.1982C93.4564 31.6247 93.961 31.9614 94.517 32.1883C95.0731 32.4152 95.6691 32.5276 96.2694 32.5188C97.0208 32.5228 97.7614 32.3403 98.4249 31.9876C99.0885 31.6349 99.6543 31.123 100.072 30.4978L98.5143 29.4228C98.2818 29.8106 97.9527 30.1314 97.5593 30.3538C97.1658 30.5761 96.7213 30.6924 96.2694 30.6913C95.8042 30.709 95.3444 30.5863 94.9498 30.3389C94.5552 30.0916 94.244 29.7312 94.0569 29.3045L100.168 26.7783L99.9428 26.2945ZM93.7132 27.821C93.6914 27.4885 93.7361 27.155 93.8447 26.84C93.9534 26.525 94.1237 26.2349 94.3457 25.9866C94.5678 25.7384 94.8371 25.5369 95.1379 25.3941C95.4388 25.2513 95.765 25.1701 96.0976 25.155C96.4441 25.1322 96.7896 25.2117 97.0913 25.3837C97.393 25.5557 97.6376 25.8126 97.7946 26.1225L93.7132 27.821ZM88.7509 32.25H90.7595V18.8125H88.7509V32.25ZM85.4643 24.4025H85.3891C85.0864 24.0638 84.7155 23.7929 84.3009 23.6077C83.8863 23.4224 83.4372 23.3269 82.9832 23.3275C81.8094 23.3845 80.7025 23.8913 79.8919 24.7429C79.0814 25.5944 78.6292 26.7255 78.6292 27.9017C78.6292 29.0778 79.0814 30.2089 79.8919 31.0605C80.7025 31.912 81.8094 32.4188 82.9832 32.4758C83.4383 32.4834 83.8896 32.3912 84.3053 32.2054C84.721 32.0197 85.0909 31.745 85.3891 31.4008H85.4535V32.0565C85.4535 33.8088 84.5191 34.744 83.0154 34.744C82.5146 34.7323 82.0285 34.5717 81.6192 34.2826C81.2099 33.9935 80.8958 33.5891 80.7169 33.1208L78.9661 33.8518C79.2957 34.6541 79.8572 35.3396 80.5787 35.8204C81.3001 36.3011 82.1487 36.5552 83.0154 36.55C85.3676 36.55 87.3117 35.1633 87.3117 31.7878V23.65H85.4643V24.4025ZM83.1657 30.7235C82.4729 30.6624 81.8281 30.3438 81.3584 29.8304C80.8886 29.317 80.6281 28.6461 80.6281 27.95C80.6281 27.2539 80.8886 26.583 81.3584 26.0697C81.8281 25.5563 82.4729 25.2376 83.1657 25.1765C83.5093 25.1942 83.8458 25.2804 84.1555 25.4303C84.4651 25.5801 84.7417 25.7904 84.969 26.0489C85.1962 26.3074 85.3694 26.6087 85.4784 26.9352C85.5875 27.2617 85.6301 27.6068 85.6039 27.95C85.6332 28.2948 85.5923 28.6419 85.4838 28.9704C85.3752 29.2989 85.2012 29.6019 84.9723 29.8612C84.7434 30.1204 84.4643 30.3305 84.152 30.4787C83.8396 30.627 83.5004 30.7102 83.155 30.7235H83.1657ZM109.352 18.8125H104.551V32.25H106.559V27.1545H109.362C109.935 27.1957 110.51 27.1184 111.051 26.9274C111.592 26.7364 112.088 26.4359 112.508 26.0446C112.928 25.6532 113.264 25.1795 113.493 24.6528C113.722 24.1262 113.84 23.5579 113.84 22.9835C113.84 22.4091 113.722 21.8409 113.493 21.3142C113.264 20.7876 112.928 20.3138 112.508 19.9225C112.088 19.5311 111.592 19.2306 111.051 19.0396C110.51 18.8487 109.935 18.7714 109.362 18.8125H109.352ZM109.352 25.2625H106.548V20.683H109.395C110.006 20.683 110.592 20.926 111.024 21.3584C111.456 21.7908 111.699 22.3773 111.699 22.9889C111.699 23.6005 111.456 24.187 111.024 24.6194C110.592 25.0518 110.006 25.2948 109.395 25.2948L109.352 25.2625ZM121.736 23.3275C121.005 23.2838 120.276 23.4548 119.641 23.8196C119.006 24.1844 118.491 24.727 118.159 25.3808L119.942 26.1225C120.118 25.7983 120.384 25.5321 120.708 25.3565C121.032 25.1809 121.401 25.1035 121.768 25.1335C122.023 25.1037 122.281 25.125 122.528 25.1962C122.775 25.2674 123.005 25.3871 123.205 25.5482C123.405 25.7093 123.57 25.9086 123.693 26.1346C123.815 26.3606 123.891 26.6086 123.916 26.8643V27.004C123.271 26.6622 122.552 26.4849 121.822 26.488C119.899 26.488 117.955 27.563 117.955 29.5088C117.974 29.9237 118.076 30.3305 118.255 30.7053C118.433 31.0801 118.686 31.4152 118.996 31.6908C119.306 31.9664 119.669 32.1769 120.062 32.3099C120.455 32.4429 120.871 32.4956 121.285 32.465C121.79 32.5014 122.297 32.4008 122.75 32.1738C123.204 31.9468 123.588 31.6018 123.862 31.175H123.927V32.25H125.86V27.0793C125.86 24.725 124.077 23.3598 121.789 23.3598L121.736 23.3275ZM121.489 30.6913C120.834 30.6913 119.921 30.358 119.921 29.5518C119.921 28.4768 121.059 28.122 122.069 28.122C122.707 28.1063 123.337 28.2622 123.895 28.5735C123.827 29.1555 123.552 29.6936 123.12 30.0887C122.688 30.4838 122.128 30.7093 121.542 30.7235L121.489 30.6913ZM132.906 23.65L130.608 29.4765H130.543L128.159 23.65H126.011L129.587 31.7985L127.546 36.3243H129.641L135.14 23.65H132.906ZM114.851 32.25H116.859V18.8125H114.851V32.25Z" fill="white"/>
<path d="M45.2296 15.3403H44.4348V13.1903H45.1115C45.42 12.863 45.653 12.472 45.7941 12.0448C45.9351 11.6176 45.9808 11.1646 45.9278 10.7178V7.52508H50.2241V13.1795H50.9437V15.3295H50.1489V13.975H45.2296V15.3403ZM46.7226 10.75C46.7727 11.6172 46.5593 12.4792 46.1104 13.2225H49.3326V8.32058H46.7226V10.75ZM57.3667 13.1365C56.7387 13.7615 55.8892 14.1123 55.0037 14.1123C54.1182 14.1123 53.2686 13.7615 52.6407 13.1365C52.0304 12.4899 51.6904 11.6342 51.6904 10.7447C51.6904 9.85521 52.0304 8.99941 52.6407 8.35283C52.9502 8.0408 53.3183 7.79315 53.7239 7.62416C54.1294 7.45516 54.5644 7.36816 55.0037 7.36816C55.443 7.36816 55.8779 7.45516 56.2835 7.62416C56.689 7.79315 57.0572 8.0408 57.3667 8.35283C57.9794 8.99818 58.321 9.85444 58.321 10.7447C58.321 11.6349 57.9794 12.4912 57.3667 13.1365ZM53.253 12.599C53.7179 13.0625 54.3475 13.3227 55.0037 13.3227C55.6599 13.3227 56.2894 13.0625 56.7544 12.599C57.2133 12.0927 57.4675 11.4336 57.4675 10.75C57.4675 10.0665 57.2133 9.40738 56.7544 8.90108C56.2894 8.43762 55.6599 8.17741 55.0037 8.17741C54.3475 8.17741 53.7179 8.43762 53.253 8.90108C52.7941 9.40738 52.5399 10.0665 52.5399 10.75C52.5399 11.4336 52.7941 12.0927 53.253 12.599ZM62.49 14.1148C62.0466 14.1236 61.606 14.0425 61.1947 13.8764C60.7834 13.7103 60.41 13.4626 60.0969 13.1482C59.7838 12.8339 59.5375 12.4593 59.3729 12.0472C59.2083 11.635 59.1286 11.1938 59.1389 10.75C59.1286 10.3063 59.2083 9.86508 59.3729 9.45293C59.5375 9.04078 59.7838 8.66624 60.0969 8.35187C60.41 8.0375 60.7834 7.78981 61.1947 7.6237C61.606 7.45759 62.0466 7.3765 62.49 7.38533C62.9394 7.37419 63.3855 7.46513 63.7948 7.65132C64.204 7.83751 64.5658 8.1141 64.8529 8.46033L64.2729 9.01932C64.0608 8.74977 63.7873 8.53494 63.4752 8.39281C63.1632 8.25068 62.8217 8.18536 62.4792 8.20232C62.1496 8.19375 61.8216 8.2522 61.5151 8.37416C61.2086 8.49611 60.9301 8.67902 60.6963 8.91183C60.2306 9.42116 59.9723 10.0865 59.9723 10.7769C59.9723 11.4673 60.2306 12.1327 60.6963 12.642C60.9301 12.8748 61.2086 13.0578 61.5151 13.1797C61.8216 13.3017 62.1496 13.3601 62.4792 13.3515C62.8573 13.3482 63.2299 13.2605 63.5698 13.095C63.9098 12.9296 64.2087 12.6903 64.4448 12.3948L65.0248 12.9753C64.7325 13.3302 64.3658 13.6164 63.9507 13.8138C63.4922 14.0216 62.9932 14.1244 62.49 14.1148ZM68.3974 13.975H67.5704V8.32058H65.7659V7.52508H70.1911V8.32058H68.3974V13.975ZM75.8837 7.52508L73.4455 12.9645C73.3479 13.2863 73.1529 13.5698 72.8874 13.7759C72.6219 13.9819 72.299 14.1003 71.9633 14.1148C71.7413 14.112 71.5221 14.0644 71.3189 13.975L71.5337 13.2118C71.6642 13.2879 71.8123 13.3286 71.9633 13.33C72.1212 13.3419 72.2789 13.3044 72.4144 13.2225C72.5438 13.1129 72.6436 12.9724 72.7044 12.814L72.9407 12.298L70.7926 7.53583H71.77L73.3596 11.2338L74.9063 7.52508H75.8837ZM76.8181 13.975V7.52508H81.4796V13.975H80.6526V8.32058H77.6452V13.975H76.8181ZM82.9511 13.975V7.52508H83.7781V10.2878H87.0004V7.52508H87.8274V13.975H87.0004V11.0618H83.7781V13.975H82.9511ZM94.5833 13.1365C93.9554 13.7615 93.1059 14.1123 92.2204 14.1123C91.3348 14.1123 90.4853 13.7615 89.8574 13.1365C89.2471 12.4899 88.907 11.6342 88.907 10.7447C88.907 9.85521 89.2471 8.99941 89.8574 8.35283C90.1669 8.0408 90.535 7.79315 90.9406 7.62416C91.3461 7.45516 91.7811 7.36816 92.2204 7.36816C92.6596 7.36816 93.0946 7.45516 93.5001 7.62416C93.9057 7.79315 94.2738 8.0408 94.5833 8.35283C95.1961 8.99818 95.5377 9.85444 95.5377 10.7447C95.5377 11.6349 95.1961 12.4912 94.5833 13.1365ZM90.4696 12.599C90.9346 13.0625 91.5641 13.3227 92.2204 13.3227C92.8766 13.3227 93.5061 13.0625 93.9711 12.599C94.43 12.0927 94.6842 11.4336 94.6842 10.75C94.6842 10.0665 94.43 9.40738 93.9711 8.90108C93.5061 8.43762 92.8766 8.17741 92.2204 8.17741C91.5641 8.17741 90.9346 8.43762 90.4696 8.90108C90.0107 9.40738 89.7565 10.0665 89.7565 10.75C89.7565 11.4336 90.0107 12.0927 90.4696 12.599ZM98.9118 13.975V7.52508H101.243C101.727 7.51593 102.196 7.69292 102.553 8.01957C102.732 8.17547 102.875 8.36893 102.972 8.58627C103.069 8.80361 103.116 9.03953 103.111 9.27732C103.117 9.56388 103.034 9.84515 102.875 10.0835C102.717 10.3151 102.498 10.4977 102.241 10.6103C102.553 10.7135 102.826 10.9083 103.026 11.1693C103.232 11.4327 103.342 11.759 103.337 12.0938C103.342 12.3416 103.293 12.5876 103.193 12.8143C103.093 13.0409 102.944 13.2427 102.757 13.4053C102.383 13.7506 101.891 13.9391 101.382 13.932L98.9118 13.975ZM99.7389 10.2878H101.243C101.383 10.2937 101.523 10.2688 101.653 10.215C101.783 10.1611 101.899 10.0796 101.994 9.97608C102.09 9.88977 102.166 9.78518 102.22 9.66855C102.274 9.55191 102.304 9.42562 102.308 9.2972C102.312 9.16879 102.29 9.04088 102.243 8.92111C102.197 8.80133 102.127 8.69215 102.037 8.60008C101.948 8.49846 101.837 8.41785 101.712 8.36398C101.588 8.3101 101.453 8.28427 101.318 8.28832H99.7818L99.7389 10.2878ZM99.7389 13.1795H101.404C101.549 13.1844 101.694 13.1571 101.828 13.0995C101.961 13.0419 102.081 12.9554 102.177 12.8463C102.366 12.6497 102.474 12.3883 102.478 12.1153C102.478 11.8302 102.365 11.5567 102.163 11.3551C101.962 11.1535 101.689 11.0403 101.404 11.0403H99.7711L99.7389 13.1795Z" fill="white"/>
<path fill-rule="evenodd" clip-rule="evenodd" d="M55.0037 7.47562C54.5786 7.47562 54.1576 7.55982 53.7652 7.72336C53.3731 7.88673 53.0172 8.12606 52.7179 8.42758C52.127 9.05409 51.7978 9.88306 51.7978 10.7447C51.7978 11.6061 52.1269 12.435 52.7176 13.0615C53.3253 13.6657 54.1471 14.0048 55.0037 14.0048C55.8603 14.0048 56.6822 13.6656 57.2898 13.0614C57.8829 12.4361 58.2136 11.6069 58.2136 10.7447C58.2136 9.88235 57.8829 9.05296 57.2896 8.42769C56.9903 8.12612 56.6343 7.88675 56.2422 7.72336C55.8497 7.55982 55.4288 7.47562 55.0037 7.47562ZM53.6826 7.52488C54.1012 7.35043 54.5502 7.26062 55.0037 7.26062C55.4572 7.26062 55.9061 7.35043 56.3248 7.52488C56.7434 7.69932 57.1234 7.95496 57.4429 8.27705L57.4445 8.27872C58.0762 8.94405 58.4285 9.82683 58.4285 10.7447C58.4285 11.6625 58.0762 12.5453 57.4445 13.2106L57.4424 13.2128C56.7944 13.8578 55.9176 14.2198 55.0037 14.2198C54.0898 14.2198 53.213 13.8577 52.565 13.2128L52.5626 13.2104C51.9335 12.5439 51.583 11.6616 51.583 10.7447C51.583 9.82771 51.9335 8.94551 52.5626 8.27896L52.5645 8.27703C52.884 7.95493 53.264 7.69932 53.6826 7.52488ZM92.2204 7.47562C91.7952 7.47562 91.3743 7.55982 90.9818 7.72336C90.5898 7.88672 90.2339 8.12603 89.9346 8.42752C89.3437 9.05405 89.0145 9.88304 89.0145 10.7447C89.0145 11.6061 89.3436 12.435 89.9343 13.0615C90.542 13.6657 91.3638 14.0048 92.2204 14.0048C93.077 14.0048 93.8989 13.6656 94.5066 13.0613C95.0996 12.4361 95.4303 11.6068 95.4303 10.7447C95.4303 9.88236 95.0995 9.05299 94.5063 8.42772C94.2069 8.12614 93.851 7.88676 93.4589 7.72336C93.0664 7.55982 92.6455 7.47562 92.2204 7.47562ZM90.8993 7.52488C91.3179 7.35043 91.7669 7.26062 92.2204 7.26062C92.6738 7.26062 93.1228 7.35043 93.5414 7.52488C93.9601 7.69932 94.3401 7.95496 94.6595 8.27705L94.6612 8.27872C95.2929 8.94407 95.6451 9.82683 95.6451 10.7447C95.6451 11.6625 95.2929 12.5453 94.6612 13.2106L94.6591 13.2128C94.0111 13.8578 93.1343 14.2198 92.2204 14.2198C91.3064 14.2198 90.4297 13.8577 89.7817 13.2128L89.7793 13.2104C89.1501 12.5439 88.7996 11.6616 88.7996 10.7447C88.7996 9.82771 89.1502 8.94551 89.7793 8.27896L89.7812 8.27703C90.1006 7.95494 90.4806 7.69932 90.8993 7.52488ZM63.7503 7.74914C63.3558 7.56967 62.9258 7.48202 62.4926 7.49275L62.4879 7.49287C62.0589 7.48434 61.6327 7.56267 61.2349 7.72335C60.8371 7.88403 60.4759 8.12363 60.173 8.42772C59.8701 8.73182 59.6319 9.09412 59.4726 9.4928C59.3134 9.89148 59.2364 10.3183 59.2463 10.7476L59.2464 10.7525C59.2365 11.1818 59.3134 11.6086 59.4726 12.0073C59.6319 12.406 59.8701 12.7683 60.173 13.0723C60.4759 13.3764 60.8371 13.616 61.2349 13.7767C61.6327 13.9374 62.0589 14.0158 62.4879 14.0073L62.49 14.1148L62.492 14.0073C62.979 14.0167 63.4618 13.9172 63.9055 13.7163C64.2766 13.5397 64.6077 13.2894 64.8787 12.9811L64.4518 12.5538C64.219 12.8197 63.9352 13.0367 63.6168 13.1917C63.2628 13.3641 62.8748 13.4554 62.4811 13.459C62.1372 13.4678 61.7951 13.4068 61.4754 13.2796C61.1555 13.1523 60.8646 12.9613 60.6205 12.7182L60.617 12.7147C60.1332 12.1855 59.8649 11.4942 59.8649 10.7769C59.8649 10.0596 60.1332 9.36836 60.617 8.83921L60.6204 8.83549C60.8645 8.59243 61.1555 8.40155 61.4754 8.27422C61.7941 8.1474 62.1351 8.08635 62.478 8.09472C62.8362 8.07762 63.1933 8.14625 63.5197 8.29493C63.8114 8.42778 64.071 8.62112 64.2817 8.86165L64.7053 8.45332C64.4398 8.15482 64.1145 7.91484 63.7503 7.74914ZM62.49 14.2223C62.0328 14.2311 61.5786 14.1474 61.1545 13.9761C60.7298 13.8046 60.3442 13.5488 60.0209 13.2241C59.6975 12.8995 59.4432 12.5127 59.2732 12.0871C59.1034 11.6622 59.0212 11.2075 59.0314 10.75C59.0212 10.2926 59.1034 9.83783 59.2732 9.41298C59.4432 8.98736 59.6975 8.60058 60.0209 8.27594C60.3442 7.9513 60.7298 7.69551 61.1545 7.52397C61.5785 7.35273 62.0326 7.26899 62.4897 7.27776C62.9546 7.2666 63.4159 7.36083 63.8392 7.55341C64.2633 7.74633 64.6381 8.03291 64.9356 8.39163L64.9993 8.46846L64.262 9.17909L64.1886 9.0858C63.987 8.82972 63.7272 8.62564 63.4307 8.49062C63.1343 8.35559 62.8099 8.29354 62.4846 8.30965L62.4764 8.31005C62.1613 8.30186 61.8477 8.35743 61.5548 8.47401C61.2626 8.59028 60.997 8.76451 60.7738 8.98622C60.3273 9.47549 60.0797 10.1142 60.0797 10.7769C60.0797 11.4396 60.3273 12.0783 60.7738 12.5676C60.997 12.7893 61.2626 12.9635 61.5548 13.0798C61.8477 13.1964 62.1613 13.2523 62.4765 13.2441L62.4783 13.244C62.8404 13.2408 63.1972 13.1569 63.5229 12.9984C63.8485 12.8399 64.1348 12.6107 64.3609 12.3277L64.4359 12.2338L65.1697 12.9683L65.1077 13.0437C64.8053 13.4107 64.4261 13.7068 63.9968 13.9109L63.995 13.9117C63.5226 14.1259 63.0085 14.2319 62.49 14.2223ZM102.481 8.09892C102.143 7.79082 101.701 7.62389 101.245 7.63252L101.243 7.63254H99.0192V13.8657L101.38 13.8246L101.384 13.8245C101.865 13.8312 102.33 13.6529 102.684 13.3263L102.687 13.3241C102.862 13.1719 103.001 12.983 103.095 12.7708C103.189 12.5585 103.235 12.3282 103.23 12.0962V12.0922C103.234 11.782 103.132 11.4797 102.941 11.2357L102.94 11.2346C102.754 10.9908 102.499 10.8088 102.208 10.7123L101.942 10.6244L102.198 10.5118C102.436 10.4074 102.64 10.2382 102.786 10.0235C102.933 9.80337 103.009 9.54371 103.004 9.27918V9.27518C103.008 9.05313 102.964 8.83284 102.874 8.62989C102.784 8.42694 102.65 8.24629 102.483 8.10072L102.481 8.09892ZM102.624 7.93928C102.247 7.59485 101.752 7.40815 101.242 7.41754H98.8044V14.0844L101.381 14.0395H101.382C101.918 14.0465 102.435 13.8483 102.829 13.4854C103.027 13.3126 103.185 13.0984 103.291 12.8578C103.398 12.6173 103.45 12.3563 103.444 12.0934V12.0954L103.337 12.0938L103.444 12.0914V12.0934C103.449 11.7349 103.331 11.3856 103.11 11.1034C102.946 10.8885 102.735 10.7157 102.494 10.5976C102.679 10.4808 102.84 10.3267 102.964 10.1441L102.965 10.1432C103.135 9.88711 103.224 9.58511 103.219 9.27736V9.27939L103.111 9.27728L103.219 9.27539V9.27736C103.224 9.02451 103.173 8.77369 103.07 8.54257C102.967 8.31127 102.815 8.10533 102.624 7.93928ZM45.8204 7.41754H50.3315V13.072H51.0511V15.437H50.0415V14.0825H45.337V15.4478H44.3274V13.0828H45.0647C45.3469 12.774 45.5608 12.4088 45.6921 12.0111C45.8282 11.5988 45.8722 11.1616 45.8211 10.7305L45.8204 10.7241V7.41754ZM46.0352 7.63254V10.7115C46.0888 11.1718 46.0414 11.6384 45.8961 12.0785C45.7501 12.5207 45.5089 12.9254 45.1896 13.2641L45.1578 13.2978H44.5422V15.2328H45.1222V13.8675H50.2563V15.222H50.8363V13.287H50.1167V7.63254H46.0352ZM65.6585 7.41754H70.2985V8.42804H68.5048V14.0825H67.463V8.42804H65.6585V7.41754ZM65.8733 7.63254V8.21304H67.6778V13.8675H68.29V8.21304H70.0837V7.63254H65.8733ZM74.8347 7.41754H76.0496L73.5463 13.0024C73.4416 13.3427 73.2345 13.6425 72.9532 13.8608C72.6701 14.0805 72.3258 14.2068 71.9679 14.2222L71.962 14.2224C71.7255 14.2194 71.4921 14.1687 71.2757 14.0735L71.1902 14.0359L71.4679 13.049L71.5877 13.1189C71.7021 13.1856 71.8319 13.2213 71.9643 13.2225L71.9714 13.2226C72.1042 13.2326 72.2368 13.2021 72.3516 13.1348C72.4641 13.0377 72.5508 12.9143 72.6042 12.7754L72.6066 12.7692L72.8227 12.2977L70.6262 7.42829H71.8407L73.3581 10.9583L74.8347 7.41754ZM74.9778 7.63254L73.3611 11.5093L71.6993 7.64329H70.9589L73.0587 12.2984L72.8034 12.8559C72.736 13.0298 72.6261 13.184 72.4838 13.3046L72.4773 13.3101L72.4699 13.3146C72.3162 13.4073 72.1377 13.4502 71.9588 13.4375C71.836 13.4359 71.7151 13.4112 71.6021 13.365L71.4483 13.9115C71.6126 13.9722 71.7862 14.0047 71.9617 14.0073C72.2741 13.9932 72.5744 13.8827 72.8216 13.6909C73.0695 13.4985 73.2516 13.2338 73.3428 12.9333L73.3447 12.9268L75.7178 7.63254H74.9778ZM76.7107 7.41754H81.587V14.0825H80.5452V8.42804H77.7526V14.0825H76.7107V7.41754ZM76.9255 7.63254V13.8675H77.5378V8.21304H80.76V13.8675H81.3722V7.63254H76.9255ZM82.8437 7.41754H83.8855V10.1803H86.8929V7.41754H87.9348V14.0825H86.8929V11.1693H83.8855V14.0825H82.8437V7.41754ZM83.0585 7.63254V13.8675H83.6707V10.9543H87.1078V13.8675H87.72V7.63254H87.1078V10.3953H83.6707V7.63254H83.0585ZM53.1772 8.82486C53.6623 8.34134 54.319 8.06987 55.0037 8.06987C55.6883 8.06987 56.3451 8.34134 56.8302 8.82486L56.8341 8.82872C57.3109 9.3548 57.5749 10.0398 57.5749 10.75C57.5749 11.4603 57.3108 12.1452 56.834 12.6713L56.8303 12.6753C56.3452 13.1588 55.6883 13.4302 55.0037 13.4302C54.319 13.4302 53.6623 13.1587 53.1772 12.6752L53.253 12.599L53.1734 12.6713C52.6966 12.1452 52.4325 11.4603 52.4325 10.75C52.4325 10.0398 52.6966 9.35489 53.1734 8.82881L53.1772 8.82486ZM53.3307 12.5248C53.7753 12.967 54.3768 13.2152 55.0037 13.2152C55.6306 13.2152 56.232 12.967 56.6767 12.5248C57.1165 12.0385 57.3601 11.406 57.3601 10.75C57.3601 10.0941 57.1165 9.46155 56.6767 8.97529C56.232 8.5331 55.6306 8.28487 55.0037 8.28487C54.3768 8.28487 53.7753 8.5331 53.3307 8.97529C52.8909 9.46155 52.6473 10.0941 52.6473 10.75C52.6473 11.406 52.8909 12.0385 53.3307 12.5248ZM90.3938 8.82486C90.879 8.34134 91.5357 8.06987 92.2204 8.06987C92.905 8.06987 93.5618 8.34134 94.0469 8.82486L94.0508 8.82872C94.5276 9.3548 94.7916 10.0398 94.7916 10.75C94.7916 11.4603 94.5275 12.1452 94.0506 12.6713L94.047 12.6753C93.5619 13.1588 92.905 13.4302 92.2204 13.4302C91.5357 13.4302 90.879 13.1587 90.3938 12.6752L90.4696 12.599L90.3901 12.6713C89.9133 12.1452 89.6491 11.4603 89.6491 10.75C89.6491 10.0398 89.9133 9.35489 90.3901 8.82881L90.3938 8.82486ZM90.5474 12.5248C90.992 12.967 91.5934 13.2152 92.2204 13.2152C92.8473 13.2152 93.4487 12.967 93.8934 12.5248C94.3332 12.0385 94.5768 11.406 94.5768 10.75C94.5768 10.0941 94.3332 9.46154 93.8934 8.97528C93.4487 8.53309 92.8473 8.28487 92.2204 8.28487C91.5934 8.28487 90.992 8.53309 90.5474 8.97528C90.1075 9.46154 89.8639 10.0941 89.8639 10.75C89.8639 11.406 90.1075 12.0385 90.5474 12.5248ZM101.316 8.18078C101.467 8.17652 101.617 8.20536 101.755 8.26528C101.893 8.32509 102.016 8.41441 102.116 8.52696C102.215 8.62899 102.292 8.74976 102.344 8.88217C102.395 9.01539 102.42 9.15767 102.415 9.30052C102.411 9.44336 102.378 9.58385 102.318 9.71359C102.258 9.84186 102.174 9.95703 102.07 10.0524C101.965 10.1657 101.837 10.2551 101.694 10.3143C101.55 10.3738 101.396 10.4014 101.24 10.3953H99.6291L99.6767 8.18078H101.316ZM101.67 8.46259C101.56 8.41498 101.441 8.39216 101.321 8.39574L101.318 8.39578H99.887L99.8486 10.1803H101.247C101.372 10.1855 101.496 10.1635 101.612 10.1156C101.727 10.0678 101.831 9.99531 101.915 9.90327L101.919 9.89968L101.922 9.8964C102.007 9.81979 102.075 9.72695 102.123 9.62343C102.17 9.5199 102.197 9.4078 102.2 9.29381C102.204 9.17982 102.185 9.06628 102.143 8.95997C102.102 8.85365 102.04 8.75674 101.96 8.67501L101.957 8.67132C101.878 8.58152 101.78 8.5102 101.67 8.46259ZM46.6152 8.21304H49.44V13.33H45.9199L46.0184 13.1669C46.4561 12.4422 46.6642 11.6017 46.6154 10.7562L46.615 10.75L46.6152 8.21304ZM46.83 8.42804V10.7469C46.8771 11.572 46.6914 12.3924 46.2961 13.115H49.2252V8.42804H46.83ZM99.6653 10.9328H101.404C101.717 10.9328 102.018 11.0574 102.239 11.2791C102.461 11.5009 102.585 11.8017 102.585 12.1153V12.1168C102.581 12.4164 102.463 12.7032 102.256 12.9193C102.149 13.0394 102.018 13.1347 101.87 13.1982C101.722 13.2618 101.563 13.2922 101.402 13.287H99.6298L99.6653 10.9328ZM99.8769 11.1478L99.8479 13.072H101.407C101.537 13.0764 101.666 13.0521 101.785 13.0007C101.904 12.9494 102.011 12.8723 102.097 12.7751L102.1 12.7716C102.27 12.5948 102.367 12.36 102.37 12.1145C102.37 11.8582 102.268 11.6124 102.087 11.4312C101.906 11.2497 101.66 11.1478 101.404 11.1478H99.8769Z" fill="white"/>
<path d="M11.2133 8.10553C10.8632 8.52597 10.6865 9.0642 10.7192 9.61053V33.3895C10.6865 33.9359 10.8632 34.4741 11.2133 34.8945L11.2884 34.9698L24.5962 21.6613V21.3495L11.2884 8.03027L11.2133 8.10553Z" fill="url(#paint0_linear_1_458)"/>
<path d="M28.9999 26.101L24.5962 21.6613V21.3495L28.9999 16.899L29.0966 16.9528L34.3703 19.952C35.874 20.8013 35.874 22.1988 34.3703 23.0588L29.118 26.0473L28.9999 26.101Z" fill="url(#paint1_linear_1_458)"/>
<path d="M29.1288 26.0365L24.5962 21.5L11.2133 34.8945C11.5198 35.1642 11.9108 35.3182 12.3187 35.33C12.7266 35.3418 13.1258 35.2105 13.4473 34.959L29.1396 26.0365" fill="url(#paint2_linear_1_458)"/>
<path d="M29.1288 16.9635L13.4366 8.04102C13.1151 7.78948 12.7159 7.65826 12.3079 7.67004C11.9 7.68182 11.509 7.83585 11.2025 8.10552L24.5962 21.5L29.1288 16.9635Z" fill="url(#paint3_linear_1_458)"/>
<path opacity="0.2" d="M28.9999 25.9397L13.4366 34.8084C13.1265 35.0405 12.7497 35.1659 12.3625 35.1659C11.9753 35.1659 11.5985 35.0405 11.2884 34.8084L11.2133 34.8837L11.2884 34.9589C11.5978 35.1927 11.9749 35.3191 12.3625 35.3191C12.7501 35.3191 13.1272 35.1927 13.4366 34.9589L29.1288 26.0364L28.9999 25.9397Z" fill="black"/>
<path opacity="0.12" d="M11.2133 34.744C10.8632 34.3236 10.6865 33.7853 10.7192 33.239V33.4003C10.6865 33.9466 10.8632 34.4848 11.2133 34.9053L11.2884 34.83L11.2133 34.744ZM34.3703 22.8975L28.9999 25.9398L29.0966 26.0365L34.3703 23.048C34.6695 22.9073 34.9264 22.6901 35.115 22.4183C35.3036 22.1465 35.4172 21.8298 35.4444 21.5C35.384 21.7996 35.2557 22.0814 35.0695 22.3236C34.8834 22.5659 34.6441 22.7622 34.3703 22.8975Z" fill="black"/>
<path opacity="0.25" d="M13.4366 8.19113L34.3703 20.1021C34.6442 20.2374 34.8834 20.4337 35.0696 20.676C35.2558 20.9183 35.384 21.2 35.4444 21.4996C35.4172 21.1699 35.3036 20.8531 35.115 20.5813C34.9265 20.3095 34.6696 20.0923 34.3703 19.9516L13.4366 8.04063C11.9329 7.19138 10.7085 7.90088 10.7085 9.62088V9.78213C10.7407 8.05138 11.9437 7.34188 13.4366 8.19113Z" fill="white"/>
</g>
<defs>
<linearGradient id="paint0_linear_1_458" x1="23.4147" y1="9.36327" x2="5.37622" y2="27.3862" gradientUnits="userSpaceOnUse">
<stop stop-color="#00A0FF"/>
<stop offset="0.01" stop-color="#00A1FF"/>
<stop offset="0.26" stop-color="#00BEFF"/>
<stop offset="0.51" stop-color="#00D2FF"/>
<stop offset="0.76" stop-color="#00DFFF"/>
<stop offset="1" stop-color="#00E3FF"/>
</linearGradient>
<linearGradient id="paint1_linear_1_458" x1="36.3358" y1="21.5" x2="10.354" y2="21.5" gradientUnits="userSpaceOnUse">
<stop stop-color="#FFE000"/>
<stop offset="0.41" stop-color="#FFBD00"/>
<stop offset="0.78" stop-color="#FFA500"/>
<stop offset="1" stop-color="#FF9C00"/>
</linearGradient>
<linearGradient id="paint2_linear_1_458" x1="26.6692" y1="23.9725" x2="2.20215" y2="48.4077" gradientUnits="userSpaceOnUse">
<stop stop-color="#FF3A44"/>
<stop offset="1" stop-color="#C31162"/>
</linearGradient>
<linearGradient id="paint3_linear_1_458" x1="7.84067" y1="0.193516" x2="18.7627" y2="11.1061" gradientUnits="userSpaceOnUse">
<stop stop-color="#32A071"/>
<stop offset="0.07" stop-color="#2DA771"/>
<stop offset="0.48" stop-color="#15CF74"/>
<stop offset="0.8" stop-color="#06E775"/>
<stop offset="1" stop-color="#00F076"/>
</linearGradient>
<clipPath id="clip0_1_458">
<rect width="145" height="43" fill="white"/>
</clipPath>
</defs>
</svg>
